<svg xmlns="http://www.w3.org/2000/svg" width="512" height="512" viewBox="0 0 512 512">
  <defs>
    <linearGradient id="g" x1="0" y1="0" x2="1" y2="1">
      <stop offset="0" stop-color="#2ECC71"/>
      <stop offset="1" stop-color="#1FA85B"/>
    </linearGradient>
  </defs>
  <!-- rounded speech-bubble tile: 3 rounded corners + 1 sharp (bottom-left) -->
  <path d="M120 40 H392 A80 80 0 0 1 472 120 V392 A80 80 0 0 1 392 472 H80 A40 40 0 0 1 40 432 V120 A80 80 0 0 1 120 40 Z" fill="url(#g)"/>
  <!-- speech tail -->
  <path d="M40 432 V360 a112 112 0 0 0 72 72 Z" fill="#1FA85B"/>
  <!-- speak mark: three sound bars -->
  <g fill="#FBF8F1">
    <rect x="170" y="206" width="44" height="100" rx="22"/>
    <rect x="234" y="166" width="44" height="180" rx="22"/>
    <rect x="298" y="206" width="44" height="100" rx="22"/>
  </g>
</svg>
